<svg xmlns="http://www.w3.org/2000/svg" style="display: none;"><symbol id="lightbulb" viewBox="0 0 512 512"><title>lightbulb</title><path d="m407 167c0-82.761-68-157-149.101-157-83.899 0-152.424 72.656-152.897 156.126-.275 48.704 80.998 147.468 80.998 165.874v40h140v-40c0-18.357 81-116.558 81-165z" fill="#ffc144"/><path d="m286 313h-60l-40 20v39h140v-40z" fill="#fff"/><path d="m326 462h-140l20 40h100z" fill="#fff7bf"/><path d="m186 422v40l140-50v-40z" fill="#fff"/><path d="m186 462h140v-50z" fill="#b6bccf"/><path d="m186 372v50l140-50z" fill="#b6bccf"/><circle cx="186" cy="178" fill="#fff" r="20"/><circle cx="326" cy="178" fill="#fff" r="20"/><g><circle cx="379.574" cy="238.81" r="10"/><path d="m320.726 14.373c-19.386-9.521-41.252-14.373-62.827-14.373-66.297 0-125.322 44.144-150.36 104.516-8.081 19.487-12.405 40.571-12.539 61.674.08 12.98 4.27 27.99 13.58 48.27 16.002 34.467 38.042 65.475 57.446 98.01 3.406 5.711 8.621 12.83 9.974 19.73v129.8c0 1.562.406 3.064 1.056 4.472l20 40c1.694 3.388 5.156 5.528 8.944 5.528h100c3.788 0 7.25-2.14 8.944-5.528 0 0 19.983-39.967 20-40 .206-.412 1.056-1.472 1.056-4.472 0 0 0-129.499 0-129.8.001-2.003 1.506-4.186 2.359-5.96 4.171-8.67 25.33-42.099 26.261-43.58 2.857-4.543 1.518-10.874-3.12-13.79-4.593-2.887-10.91-1.461-13.79 3.11-1.32 2.1-16.62 26.27-21.38 34.48-2.698 4.655-4.71 8.407-6.256 11.654l-22.309-10.597 25.985-99.61c.744.056 1.492.093 2.25.093 16.542 0 30-13.458 30-30s-13.458-30-30-30c-12.376 0-23.023 7.533-27.603 18.255l-15.326-15.326c-3.906-3.905-10.236-3.905-14.143 0l-12.928 12.929-12.929-12.929c-3.906-3.905-10.236-3.905-14.143 0l-15.326 15.326c-4.579-10.722-15.226-18.255-27.602-18.255-16.542 0-30 13.458-30 30s13.458 30 30 30c.758 0 1.506-.038 2.25-.093l26.028 99.774-22.059 11.03c-1.121-2.406-2.53-5.131-4.379-8.48-20.917-37.888-47.995-72.392-64.78-112.52-5.24-12.54-8.109-23.77-8.06-31.42.2-37.52 15.64-74.98 42.35-102.57 27.3-28.19 63.01-43.72 100.55-43.72h.04c36.12 0 70.79 15.74 97.63 44.31 26.35 28.049 41.45 65.479 41.43 102.689.04 6.909-2.339 16.789-6.719 27.808-2.028 5.104.572 10.975 5.648 12.972 4.917 1.935 10.915-.433 12.97-5.64 5.49-14.06 8.061-25.22 8.101-35.14.258-63.821-39.323-124.657-96.274-152.627zm-20.907 477.627h-87.639l-10-20h107.639zm16.181-40h-72.268l72.268-25.81zm10-284c5.514 0 10 4.486 10 10s-4.486 10-10 10-10-4.486-10-10 4.486-10 10-10zm-140 20c-5.514 0-10-4.486-10-10s4.486-10 10-10 10 4.486 10 10-4.486 10-10 10zm20.759 11.627c3.34-3.208 5.942-7.176 7.521-11.627h1.72c2.652 0 5.195-1.054 7.071-2.929l12.929-12.929 12.929 12.929c3.906 3.905 10.236 3.905 14.143 0l12.928-12.929 12.929 12.929c1.876 1.875 4.419 2.929 7.071 2.929h1.72c1.579 4.451 4.181 8.419 7.521 11.627l-26.967 103.373h-44.549zm-10.759 139.553 32.36-16.18h55.386l32.254 15.321v23.679h-120zm0 42.82h72.268l-72.268 25.81zm0 47.047 120-42.857v18.763l-120 42.857z"/><path d="m44.908 99.811 28.19 10.261c1.129.411 2.283.606 3.419.606 4.085 0 7.92-2.522 9.397-6.583 1.89-5.19-.786-10.928-5.977-12.817l-28.19-10.261c-5.19-1.891-10.928.787-12.816 5.977-1.889 5.189.787 10.927 5.977 12.817z"/><path d="m467.092 232.189-28.19-10.261c-5.189-1.891-10.928.787-12.816 5.977-1.89 5.19.786 10.928 5.977 12.817l28.19 10.261c1.129.411 2.283.606 3.419.606 4.085 0 7.92-2.522 9.397-6.583 1.889-5.189-.787-10.927-5.977-12.817z"/><path d="m75 166c0-5.523-4.478-10-10-10h-30c-5.522 0-10 4.477-10 10s4.478 10 10 10h30c5.522 0 10-4.477 10-10z"/><path d="m477 156h-30c-5.522 0-10 4.477-10 10s4.478 10 10 10h30c5.522 0 10-4.477 10-10s-4.478-10-10-10z"/><path d="m85.915 227.905c-1.889-5.19-7.628-7.864-12.816-5.977l-28.19 10.261c-5.19 1.889-7.866 7.627-5.977 12.817 1.478 4.061 5.313 6.583 9.397 6.583 1.136 0 2.29-.195 3.419-.606l28.19-10.261c5.191-1.889 7.867-7.627 5.977-12.817z"/><path d="m426.085 104.095c1.478 4.061 5.313 6.583 9.397 6.583 1.136 0 2.29-.195 3.419-.606l28.19-10.261c5.19-1.889 7.866-7.627 5.977-12.817s-7.628-7.866-12.816-5.977l-28.19 10.261c-5.191 1.889-7.867 7.627-5.977 12.817z"/><path d="m103.258 281.112-22.981 19.284c-4.23 3.55-4.783 9.857-1.233 14.087 3.363 4.008 9.859 4.783 14.089 1.234l22.981-19.284c4.23-3.55 4.783-9.858 1.232-14.088-3.549-4.232-9.859-4.782-14.088-1.233z"/><path d="m402.322 53.09c2.296.025 4.605-.678 6.42-2.201l22.981-19.284c4.23-3.55 4.783-9.858 1.232-14.088-3.549-4.231-9.857-4.782-14.088-1.233l-22.981 19.284c-4.23 3.55-4.783 9.856-1.234 14.086 1.842 2.194 4.746 3.404 7.67 3.436z"/><path d="m80.276 31.604s22.949 19.257 22.981 19.284c4.032 3.383 10.505 3.039 14.088-1.233 3.551-4.23 2.998-10.538-1.232-14.088l-22.981-19.284c-4.229-3.549-10.539-2.999-14.088 1.233-3.551 4.231-2.998 10.538 1.232 14.088z"/><path d="m431.724 300.396-22.981-19.284c-4.231-3.549-10.539-2.999-14.088 1.233-3.551 4.23-2.998 10.538 1.232 14.088l22.982 19.284c4.19 3.516 10.573 2.957 14.088-1.233 3.55-4.231 2.997-10.538-1.233-14.088z"/></g></symbol><symbol id="file" viewBox="0 0 512 512"><title>file</title><path d="M456,488H152a32,32,0,0,1-32-32V56a32,32,0,0,1,32-32H392l96,96V456A32,32,0,0,1,456,488Z" style="fill:#e9eef2"/><path d="M488,120H424a32,32,0,0,1-32-32V24Z" style="fill:#c3c6c7"/><path d="M144,168V136L80,192l64,56V216a72,72,0,1,1-72,72H24A120,120,0,1,0,144,168Z" style="fill:#f79539"/><path d="M397.657,18.343A8,8,0,0,0,392,16H152a40.045,40.045,0,0,0-40,40v97.37L74.732,185.979a8,8,0,0,0,0,12.042L104,223.63V337.907A63.9,63.9,0,0,1,80,288a8,8,0,0,0-8-8H24a8,8,0,0,0-8,8,128.23,128.23,0,0,0,96,123.95V456a40.045,40.045,0,0,0,40,40H456a40.045,40.045,0,0,0,40-40V120a8,8,0,0,0-2.343-5.657ZM400,43.313,468.687,112H424a24.027,24.027,0,0,1-24-24ZM32.283,296H64.4A80,80,0,1,0,144,208a8,8,0,0,0-8,8v14.37L92.149,192,136,153.63V168a8,8,0,0,0,8,8A112,112,0,1,1,32.283,296ZM120,347.313V237.63l18.732,16.391A8,8,0,0,0,152,248V224.5a64,64,0,1,1-32,122.816ZM480,456a24.028,24.028,0,0,1-24,24H152a24.028,24.028,0,0,1-24-24V415A128.044,128.044,0,0,0,272,288c0-67.892-53.135-123.607-120-127.753V136a8,8,0,0,0-13.268-6.021L128,139.37V56a24.028,24.028,0,0,1,24-24H384V88a40.045,40.045,0,0,0,40,40h56Z"/><path d="M288,168a8,8,0,0,0-8-8H264a8,8,0,0,0,0,16h16A8,8,0,0,0,288,168Z"/><path d="M296,224h32a8,8,0,0,0,0-16H296a8,8,0,0,0,0,16Z"/><path d="M440,256H312a8,8,0,0,0,0,16H440a8,8,0,0,0,0-16Z"/><path d="M360,320a8,8,0,0,0,0-16H312a8,8,0,0,0,0,16Z"/><path d="M440,208H360a8,8,0,0,0,0,16h80a8,8,0,0,0,0-16Z"/><path d="M440,304H392a8,8,0,0,0,0,16h48a8,8,0,0,0,0-16Z"/><path d="M376,400H312a8,8,0,0,0,0,16h64a8,8,0,0,0,0-16Z"/><path d="M280,400H264a8,8,0,0,0,0,16h16a8,8,0,0,0,0-16Z"/><path d="M248,112H184a8,8,0,0,0,0,16h64a8,8,0,0,0,0-16Z"/><path d="M352,360a8,8,0,0,0-8-8H296a8,8,0,0,0,0,16h48A8,8,0,0,0,352,360Z"/><path d="M440,352H376a8,8,0,0,0,0,16h64a8,8,0,0,0,0-16Z"/><path d="M440,400H408a8,8,0,0,0,0,16h32a8,8,0,0,0,0-16Z"/><path d="M304,168a8,8,0,0,0,8,8H440a8,8,0,0,0,0-16H312A8,8,0,0,0,304,168Z"/></symbol><symbol id="law" viewBox="0 0 496 496"><title>law</title><path d="m376 232v208h-48v48h-320v-480h368" fill="#bab8b9"/><path d="m488 120c0 61.855469-50.144531 112-112 112s-112-50.144531-112-112 50.144531-112 112-112 112 50.144531 112 112zm0 0" fill="#dbaf89"/><path d="m328 488 48-48h-48zm0 0" fill="#999"/><path d="m40 40h160v192h-160zm0 0" fill="#999"/><path d="m168 200h-96v-16c0-26.511719 21.488281-48 48-48s48 21.488281 48 48zm0 0" fill="#599072"/><path d="m108 137.574219c-20.6875 5.335937-36 24.066406-36 46.425781v16h72v-16c0-22.359375-15.3125-41.089844-36-46.425781zm0 0" fill="#70b48f"/><path d="m152 104c0 17.671875-14.328125 32-32 32s-32-14.328125-32-32 14.328125-32 32-32 32 14.328125 32 32zm0 0" fill="#dcb29c"/><path d="m136 104c0-17.050781-10.746094-30.871094-24-30.871094s-24 13.820313-24 30.871094 10.746094 30.871094 24 30.871094 24-13.820313 24-30.871094zm0 0" fill="#f3c6b0"/><path d="m120 144c-22.054688 0-40-17.945312-40-40s17.945312-40 40-40 40 17.945312 40 40-17.945312 40-40 40zm0-64c-13.230469 0-24 10.769531-24 24s10.769531 24 24 24 24-10.769531 24-24-10.769531-24-24-24zm0 0"/><path d="m168 208h-96c-4.414062 0-8-3.574219-8-8v-16c0-30.871094 25.121094-56 56-56s56 25.128906 56 56v16c0 4.425781-3.585938 8-8 8zm-88-16h80v-8c0-22.054688-17.945312-40-40-40s-40 17.945312-40 40zm0 0"/><path d="m200 240h-160c-4.414062 0-8-3.574219-8-8v-192c0-4.425781 3.585938-8 8-8h160c4.414062 0 8 3.574219 8 8v192c0 4.425781-3.585938 8-8 8zm-152-16h144v-176h-144zm0 0"/><path d="m32 256h176v16h-176zm0 0"/><path d="m32 288h176v16h-176zm0 0"/><path d="m32 320h320v16h-320zm0 0"/><path d="m32 352h320v16h-320zm0 0"/><path d="m32 384h320v16h-320zm0 0"/><path d="m328 496h-320c-4.414062 0-8-3.574219-8-8v-480c0-4.425781 3.585938-8 8-8h368v16h-360v464h304v-40c0-4.425781 3.585938-8 8-8h40v-200h16v208c0 4.425781-3.585938 8-8 8h-40v40c0 4.425781-3.585938 8-8 8zm0 0"/><path d="m491.03125 154.28125-15.335938-4.5625c1.441407-4.832031 2.527344-9.832031 3.257813-14.855469l15.832031 2.28125c-.832031 5.792969-2.097656 11.558594-3.753906 17.136719zm0 0"/><path d="m376 240c-8.664062 0-17.3125-.929688-25.703125-2.769531l3.414063-15.621094c7.273437 1.582031 14.777343 2.390625 22.289062 2.390625 39.953125 0 76.847656-23.328125 94-59.433594l14.457031 6.859375c-19.792969 41.664063-62.359375 68.574219-108.457031 68.574219zm0 0"/><path d="m333.136719 232.121094c-5.914063-2.265625-11.679688-5.023438-17.136719-8.175782l8.007812-13.839843c4.726563 2.734375 9.726563 5.117187 14.863282 7.085937zm0 0"/><path d="m301.761719 214.28125c-29.082031-22.921875-45.761719-57.289062-45.761719-94.28125 0-2.871094.105469-5.742188.304688-8.566406l15.960937 1.140625c-.175781 2.449219-.265625 4.929687-.265625 7.425781 0 32.0625 14.457031 61.839844 39.664062 81.71875zm0 0"/><path d="m274.390625 97.703125-15.628906-3.40625c2.78125-12.769531 7.621093-24.921875 14.382812-36.152344l13.703125 8.261719c-5.847656 9.730469-10.039062 20.25-12.457031 31.296875zm0 0"/><path d="m496 120h-16c0-57.34375-46.65625-104-104-104-30.792969 0-59.832031 13.535156-79.664062 37.152344l-12.257813-10.304688c22.890625-27.230468 56.394531-42.847656 91.921875-42.847656 66.167969 0 120 53.832031 120 120zm0 0"/><path d="m376 208c-48.519531 0-88-39.480469-88-88 0-12.230469 2.464844-24.078125 7.328125-35.199219l14.664063 6.40625c-3.976563 9.089844-5.992188 18.777344-5.992188 28.792969 0 39.703125 32.304688 72 72 72 4.839844 0 9.6875-.488281 14.40625-1.449219l3.179688 15.6875c-5.761719 1.167969-11.683594 1.761719-17.585938 1.761719zm0 0"/><path d="m318.390625 76.800781-12.789063-9.609375c5-6.664062 10.917969-12.574218 17.582032-17.589844l9.617187 12.796876c-5.457031 4.097656-10.304687 8.945312-14.410156 14.402343zm0 0"/><path d="m456.671875 155.199219-14.664063-6.398438c3.976563-9.097656 5.992188-18.785156 5.992188-28.800781 0-39.703125-32.304688-72-72-72-11.015625 0-21.585938 2.425781-31.40625 7.191406l-6.992188-14.382812c12.023438-5.847656 24.933594-8.808594 38.398438-8.808594 48.519531 0 88 39.480469 88 88 0 12.230469-2.464844 24.078125-7.328125 35.199219zm0 0"/><path d="m428.816406 190.398438-9.617187-12.78125c5.464843-4.113282 10.3125-8.960938 14.410156-14.417969l12.789063 9.609375c-5.007813 6.664062-10.917969 12.582031-17.582032 17.589844zm0 0"/><path d="m376 176c-30.878906 0-56-25.128906-56-56s25.121094-56 56-56 56 25.128906 56 56-25.121094 56-56 56zm0-96c-22.054688 0-40 17.945312-40 40s17.945312 40 40 40 40-17.945312 40-40-17.945312-40-40-40zm0 0"/><path d="m376 144c-13.230469 0-24-10.769531-24-24s10.769531-24 24-24 24 10.769531 24 24-10.769531 24-24 24zm0-32c-4.40625 0-8 3.585938-8 8s3.59375 8 8 8 8-3.585938 8-8-3.59375-8-8-8zm0 0"/><path d="m322.335938 482.34375 47.996093-47.996094 11.316407 11.3125-48 47.996094zm0 0"/></symbol><symbol id="stay-home" viewBox="0 0 64 64"><title>stay-home</title><path d="m55 8h6v12h-6z" fill="#2488ff"/><path d="m58 8h3v12h-3z" fill="#006df0"/><path d="m55 8v12h-9.93a3.925 3.925 0 0 1 -2-.54l-10.33-5.96a3.014 3.014 0 0 1 -1.1-4.1 2.858 2.858 0 0 1 .28-.4h-19.92a3 3 0 0 1 0-6h33.52a3.976 3.976 0 0 1 2.6.96l3.59 3.08a4 4 0 0 0 2.6.96z" fill="#ffc477"/><path d="m55 8v2h-2.69a4 4 0 0 1 -2.6-.96l-3.59-3.08a3.976 3.976 0 0 0 -2.6-.96h-33.52a3.1 3.1 0 0 0 -.87.13 3.058 3.058 0 0 1 .75-1.25 2.993 2.993 0 0 1 2.12-.88h33.52a3.976 3.976 0 0 1 2.6.96l3.59 3.08a4 4 0 0 0 2.6.96z" fill="#ffa733"/><path d="m55 58a3 3 0 0 1 -3 3h-33.52a3.976 3.976 0 0 1 -2.6-.96l-3.59-3.08a4 4 0 0 0 -2.6-.96h-.69v-12h9.93a3.925 3.925 0 0 1 2 .54l.07.04 10.26 5.92a3.146 3.146 0 0 1 .64.5 3 3 0 0 1 .46 3.6 2.858 2.858 0 0 1 -.28.4h19.92a3 3 0 0 1 3 3z" fill="#ffc477"/><path d="m46 31v5l-3-3-11-11-11 11-3 3v-5l14-14z" fill="#806749"/><path d="m46 31v5l-2-2v-3l-13-13 1-1z" fill="#6a563d"/><path d="m43 33v18h-11.1a3.146 3.146 0 0 0 -.64-.5l-10.26-5.92v-11.58l11-11z" fill="#fee9ab"/><path d="m43 33v18h-2v-18l-10-10 1-1z" fill="#ffd422"/><path d="m40 34v1a2.006 2.006 0 0 1 -2 2h-4v-3z" fill="#ffcd00"/><path d="m39 43v4h-6v-4a2.006 2.006 0 0 1 2-2h2a2.006 2.006 0 0 1 2 2z" fill="#ff3051"/><path d="m38 37v2a2 2 0 0 1 -4 0v-2z" fill="#ffc477"/><path d="m31 43v4h-5.81l-.19-.11v-3.89a2.006 2.006 0 0 1 2-2h2a2.006 2.006 0 0 1 2 2z" fill="#b2fa09"/><path d="m30 37v2a2 2 0 0 1 -4 0v-2z" fill="#ffc477"/><path d="m30 34v3h-4a2.006 2.006 0 0 1 -2-2v-1z" fill="#ffcd00"/><path d="m3 44h6v12h-6z" fill="#2488ff"/><path d="m52 54h-18.34a3.98 3.98 0 0 0 -.07-2h9.41a1 1 0 0 0 1-1v-15.59l1.29 1.3a1.007 1.007 0 0 0 .71.29.838.838 0 0 0 .38-.08.987.987 0 0 0 .62-.92v-5a1.033 1.033 0 0 0 -.29-.71l-14-14a1.008 1.008 0 0 0 -1.42 0l-14 14a1.033 1.033 0 0 0 -.29.71v5a.987.987 0 0 0 .62.92 1 1 0 0 0 1.09-.21l1.29-1.3v7.72a4.819 4.819 0 0 0 -1.07-.13h-15.93a1 1 0 0 0 -1 1v12a1 1 0 0 0 1 1h6.69a3.029 3.029 0 0 1 1.95.72l3.59 3.08a5.017 5.017 0 0 0 3.25 1.2h33.52a4 4 0 0 0 0-8zm-44 1h-4v-10h4zm34-5h-9.71a5.006 5.006 0 0 0 -.53-.37l-2.83-1.63h2.07a1 1 0 0 0 1-1 1 1 0 0 0 1 1h6a1 1 0 0 0 1-1v-4a2.983 2.983 0 0 0 -1.4-2.53 2.942 2.942 0 0 0 .4-1.47v-1.18a3.01 3.01 0 0 0 2-2.82v-1a1 1 0 0 0 -1-1h-6a1 1 0 0 0 -1 1v5a2.942 2.942 0 0 0 .4 1.47 2.983 2.983 0 0 0 -1.4 2.53 2.983 2.983 0 0 0 -1.4-2.53 2.942 2.942 0 0 0 .4-1.47v-5a1 1 0 0 0 -1-1h-6a1 1 0 0 0 -1 1v1a3.01 3.01 0 0 0 2 2.82v1.18a2.942 2.942 0 0 0 .4 1.47 2.983 2.983 0 0 0 -1.4 2.53v2.16l-2-1.16v-10.59l10-10 10 10zm-16-14a1 1 0 0 1 -1-1h4v1zm3 2v1a1 1 0 0 1 -2 0v-1zm-3 5a1 1 0 0 1 1-1h2a1 1 0 0 1 1 1v3h-4zm11-5v1a1 1 0 0 1 -2 0v-1zm-2-2v-1h4a1 1 0 0 1 -1 1zm2 6a1 1 0 0 1 1 1v3h-4v-3a1 1 0 0 1 1-1zm-18-8.41v-2.18l13-13 13 13v2.18l-12.29-12.3a1.014 1.014 0 0 0 -1.42 0zm33 26.41h-33.52a3.009 3.009 0 0 1 -1.95-.72l-3.59-3.08a5.051 5.051 0 0 0 -2.94-1.17v-10.03h8.93a3.062 3.062 0 0 1 1.5.4l3.78 2.19a1.027 1.027 0 0 0 .68.39l5.87 3.39a2 2 0 0 1 .73 2.73 2.006 2.006 0 0 1 -2.73.73l-11.26-6.5-1 1.73 11.26 6.5a3.989 3.989 0 0 0 4.75-.56h19.49a2 2 0 0 1 0 4z"/><path d="m61 7h-6.69a3.029 3.029 0 0 1 -1.95-.72l-3.59-3.08a5.017 5.017 0 0 0 -3.25-1.2h-33.52a4 4 0 0 0 0 8h18.34a4.019 4.019 0 0 0 1.9 4.37l10.33 5.96a5.009 5.009 0 0 0 2.5.67h15.93a1 1 0 0 0 1-1v-12a1 1 0 0 0 -1-1zm-7 12h-8.93a3.062 3.062 0 0 1 -1.5-.4l-10.33-5.97a2 2 0 0 1 -.73-2.73 1.993 1.993 0 0 1 2.73-.73l11.26 6.5 1-1.73-11.26-6.5a3.989 3.989 0 0 0 -4.75.56h-19.49a2 2 0 0 1 0-4h33.52a3.009 3.009 0 0 1 1.95.72l3.59 3.08a5.051 5.051 0 0 0 2.94 1.17zm6 0h-4v-10h4z"/></symbol><symbol id="petition" viewBox="0 0 300 300"><title>petition</title><circle cx="176.436" cy="116" fill="#efefd2" r="90"/><path d="m258.666 45.883c-1.023 0-2.047-.391-2.828-1.172-1.562-1.562-1.562-4.096 0-5.656l6.779-6.777c1.562-1.562 4.094-1.562 5.656 0s1.562 4.096 0 5.656l-6.779 6.777c-.781.781-1.805 1.172-2.828 1.172z" fill="#4c241d"/><path d="m242.85 61.701c-1.023 0-2.047-.391-2.828-1.172-1.562-1.562-1.562-4.094 0-5.656l6.779-6.779c1.562-1.562 4.094-1.562 5.656 0s1.562 4.094 0 5.656l-6.779 6.779c-.782.782-1.805 1.172-2.828 1.172z" fill="#4c241d"/><path d="m248.877 45.133c-1.023 0-2.047-.391-2.828-1.172l-6.832-6.834c-1.562-1.562-1.562-4.096 0-5.656 1.562-1.562 4.094-1.562 5.656 0l6.832 6.834c1.562 1.562 1.562 4.096 0 5.656-.781.781-1.805 1.172-2.828 1.172z" fill="#4c241d"/><path d="m265.445 61.701c-1.023 0-2.047-.391-2.828-1.172l-6.779-6.779c-1.562-1.562-1.562-4.094 0-5.656s4.094-1.562 5.656 0l6.779 6.779c1.562 1.562 1.562 4.094 0 5.656-.781.782-1.804 1.172-2.828 1.172z" fill="#4c241d"/><path d="m60.292 54-25.737 25.714v190.286h144.127v-216z" fill="#fff"/><path d="m178.682 274h-144.127c-2.209 0-4-1.791-4-4v-190.285c0-1.061.422-2.08 1.172-2.83l25.736-25.715c.75-.748 1.768-1.17 2.828-1.17h118.391c2.209 0 4 1.791 4 4v216c0 2.209-1.791 4-4 4zm-140.127-8h136.127v-208h-112.735l-23.392 23.373z" fill="#4c241d"/><path d="m62.435 81.545v-25.737l-27.881 25.737z" fill="#fff"/><g fill="#4c241d"><path d="m62.436 85.545h-27.881c-1.646 0-3.125-1.01-3.725-2.543-.6-1.535-.199-3.279 1.012-4.396l27.881-25.736c1.17-1.076 2.867-1.359 4.316-.725 1.457.637 2.396 2.076 2.396 3.664v25.736c.001 2.209-1.79 4-3.999 4zm-17.651-8h13.65v-12.6z"/><path d="m90.436 146h-32c-2.209 0-4-1.791-4-4v-32c0-2.209 1.791-4 4-4h32c2.209 0 4 1.791 4 4v32c0 2.209-1.791 4-4 4zm-28-8h24v-24h-24z"/><path d="m136.443 121.578h-27.252c-2.209 0-4-1.791-4-4s1.791-4 4-4h27.252c2.209 0 4 1.791 4 4s-1.791 4-4 4z"/><path d="m154.436 138h-44c-2.209 0-4-1.791-4-4s1.791-4 4-4h44c2.209 0 4 1.791 4 4s-1.791 4-4 4z"/><path d="m90.436 198h-32c-2.209 0-4-1.791-4-4v-32c0-2.209 1.791-4 4-4h32c2.209 0 4 1.791 4 4v32c0 2.209-1.791 4-4 4zm-28-8h24v-24h-24z"/><path d="m136.443 173.578h-27.252c-2.209 0-4-1.791-4-4s1.791-4 4-4h27.252c2.209 0 4 1.791 4 4s-1.791 4-4 4z"/><path d="m154.436 190h-44c-2.209 0-4-1.791-4-4s1.791-4 4-4h44c2.209 0 4 1.791 4 4s-1.791 4-4 4z"/><path d="m90.436 254h-32c-2.209 0-4-1.791-4-4v-32c0-2.209 1.791-4 4-4h32c2.209 0 4 1.791 4 4v32c0 2.209-1.791 4-4 4zm-28-8h24v-24h-24z"/><path d="m136.443 229.578h-27.252c-2.209 0-4-1.791-4-4s1.791-4 4-4h27.252c2.209 0 4 1.791 4 4s-1.791 4-4 4z"/><path d="m154.436 246h-44c-2.209 0-4-1.791-4-4s1.791-4 4-4h44c2.209 0 4 1.791 4 4s-1.791 4-4 4z"/></g><path d="m226.436 66c0-8.837-7.163-16-16-16s-16 7.163-16 16v4h32z" fill="#ffded5"/><path d="m226.436 74h-32c-2.209 0-4-1.791-4-4v-4c0-11.027 8.973-20 20-20s20 8.973 20 20v4c0 2.209-1.791 4-4 4zm-28-8h24c0-6.617-5.383-12-12-12s-12 5.383-12 12z" fill="#4c241d"/><path d="m194.436 70h32v160h-32z" fill="#ffce56"/><path d="m226.436 234h-32c-2.209 0-4-1.791-4-4v-160c0-2.209 1.791-4 4-4h32c2.209 0 4 1.791 4 4v160c0 2.209-1.791 4-4 4zm-28-8h24v-152h-24z" fill="#4c241d"/><path d="m214.436 146c-2.209 0-4-1.791-4-4v-72c0-2.209 1.791-4 4-4s4 1.791 4 4v72c0 2.209-1.791 4-4 4z" fill="#4c241d"/><path d="m78.436 190c-1.023 0-2.047-.391-2.828-1.172l-8.002-8c-1.562-1.561-1.562-4.094 0-5.656s4.094-1.562 5.656 0l5.174 5.172 17.172-17.172c1.562-1.562 4.094-1.562 5.656 0s1.562 4.094 0 5.656l-20 20c-.782.781-1.805 1.172-2.828 1.172z" fill="#a9ba5a"/><path d="m226.436 230h-32l6.399 16h19.201z" fill="#e7d1c4"/><path d="m220.035 250h-19.199c-1.635 0-3.105-.996-3.715-2.514l-6.4-16c-.492-1.232-.342-2.629.402-3.729s1.984-1.758 3.312-1.758h32c1.328 0 2.568.658 3.312 1.758s.895 2.496.402 3.729l-6.4 16c-.608 1.518-2.079 2.514-3.714 2.514zm-16.49-8h13.781l3.201-8h-20.184z" fill="#4c241d"/><path d="m220.036 246h-19.201l9.601 24z" fill="#6b4f5b"/><path d="m210.436 274c-1.635 0-3.107-.996-3.715-2.514l-9.6-24c-.492-1.232-.342-2.629.402-3.729s1.984-1.758 3.312-1.758h19.199c1.328 0 2.568.658 3.312 1.758s.895 2.496.402 3.729l-9.6 24c-.605 1.518-2.078 2.514-3.712 2.514zm-3.692-24 3.691 9.229 3.691-9.229z" fill="#4c241d"/></symbol><symbol id="heritage" viewBox="0 0 64 64"><title>heritage</title><g><g><path d="m58 50-1 8h-18l-1-8h7 6z" fill="#aab2bd"/></g><g><path d="m45 46h6v4h-6z" fill="#969faa"/></g><g><path d="m52 30c0-6 5-10 5-17s-6-8-9-8-9 1-9 8 5 11 5 17c0 5-3 7-3 7l2.22 5 1.78 4h6l1.78-4 2.22-5s-3-2-3-7z" fill="#d3a06c"/></g><g><path d="m23 6c-5-3-14 0-14 0l1 4-.12.52c-4.43-1.07-6.88-3.52-6.88-3.52s2-5 15-5 17 5 17 5c-3.5.78-7.15 1.1-10.3 1.21l-.01-.21c.03-.6-.47-1.27-1.69-2z" fill="#f0d0b4"/></g><g><path d="m24.69 8 .01.21c-4.96.16-8.7-.21-8.7-.21v2.95c-.66.03-1.33.05-2 .05-1.52 0-2.9-.19-4.12-.48l.12-.52-1-4s9-3 14 0c1.22.73 1.72 1.4 1.69 2z" fill="#ffeaa7"/></g><g><path d="m16 28 .19.51c-1.36.51-2.54 1.38-3.43 2.49h-5.76l-4-24s2.45 2.45 6.88 3.52c1.22.29 2.6.48 4.12.48.67 0 1.34-.02 2-.05z" fill="#ccd1d9"/></g><g><path d="m16 44 1 17.99c-12.1-.25-14-4.99-14-4.99l4-18h4.58c.84 2.07 2.51 3.71 4.61 4.49z" fill="#ccd1d9"/></g><g><path d="m31 39 4 18s-4 5-17 5c-.34 0-.68 0-1-.01l-1-17.99.19-.51c.87.33 1.82.51 2.81.51 3.36 0 6.23-2.07 7.42-5z" fill="#e6e9ed"/></g><g><path d="m35 7-4 24h-5.76c-1.46-1.83-3.71-3-6.24-3-.99 0-1.94.18-2.81.51l-.19-.51v-17.05-2.95s3.74.37 8.7.21c3.15-.11 6.8-.43 10.3-1.21z" fill="#e6e9ed"/></g><g><path d="m25.24 31c.91 1.13 1.51 2.5 1.7 4.01.04.32.06.66.06.99 0 1.06-.21 2.07-.58 3h4.58v-8z" fill="#ff826e"/></g><g><path d="m11.06 35c.19-1.5.8-2.88 1.7-4h-5.76v8h4.58c-.37-.93-.58-1.94-.58-3 0-.34.02-.67.06-1z" fill="#ff826e"/></g><g><path d="m25.24 31c.91 1.13 1.51 2.5 1.7 4.01.04.32.06.66.06.99 0 1.06-.21 2.07-.58 3-1.19 2.93-4.06 5-7.42 5-.99 0-1.94-.18-2.81-.51-2.1-.78-3.77-2.42-4.61-4.49-.37-.93-.58-1.94-.58-3 0-.34.02-.67.06-1 .19-1.5.8-2.88 1.7-4 .89-1.11 2.07-1.98 3.43-2.49.87-.33 1.82-.51 2.81-.51 2.53 0 4.78 1.17 6.24 3z" fill="#fc6e51"/></g><g><circle cx="19" cy="36" fill="#ff826e" r="4"/></g></g><g><path d="m52 49v-2.787l4.256-9.577-.701-.468c-.026-.017-2.555-1.754-2.555-6.168 0-2.658 1.097-4.958 2.258-7.392 1.348-2.825 2.742-5.747 2.742-9.608 0-8.351-7.654-9-10-9s-10 .649-10 9c0 3.861 1.394 6.783 2.742 9.608 1.161 2.434 2.258 4.734 2.258 7.392 0 4.354-2.457 6.101-2.555 6.168l-.701.468 4.256 9.577v2.787h-7.133l1.25 10h19.766l1.25-10zm-6.35-4-.889-2h6.478l-.889 2zm-.65-15c0-3.111-1.247-5.725-2.453-8.253-1.252-2.624-2.547-5.338-2.547-8.747 0-6.091 5.013-7 8-7s8 .909 8 7c0 3.409-1.295 6.123-2.547 8.747-1.206 2.528-2.453 5.142-2.453 8.253 0 2.797.864 4.74 1.727 6h-7.727v2h8.462l-1.334 3h-8.256l-1.655-3.724c1.003-.97 2.783-3.259 2.783-7.276zm1 17h4v2h-4zm10.117 10h-16.234l-.75-6h4.867 8 4.867z"/><path d="m52.052 12.316c.828 2.485-.868 5.105-.884 5.129l1.664 1.109c.093-.139 2.258-3.446 1.116-6.871-1.214-3.641-5.756-3.683-5.948-3.683v2c.033 0 3.288.026 4.052 2.316z"/><path d="m19 41c2.757 0 5-2.243 5-5s-2.243-5-5-5-5 2.243-5 5 2.243 5 5 5zm0-8c1.654 0 3 1.346 3 3s-1.346 3-3 3-3-1.346-3-3 1.346-3 3-3z"/><path d="m32 36v-1-3.917l4.06-24.358-.278-.349c-.177-.22-4.455-5.376-17.782-5.376-13.521 0-15.837 5.399-15.929 5.628l-.104.26 4.033 24.195v3.917 1 2.889l-4.043 18.196.114.286c.092.231 2.408 5.629 15.929 5.629 13.327 0 17.605-5.156 17.781-5.375l.299-.374-4.08-18.362zm-24.153-6-3.45-20.699c1.953 1.223 5.211 2.699 9.603 2.699.335 0 .666-.018 1-.027v15.977c-1.023.51-1.933 1.208-2.689 2.05zm2.356-23.312c2.311-.634 8.598-2.04 12.282.17.231.139.415.266.569.382-4.015.047-6.901-.23-6.954-.235l-1.1-.109v3.077c-.334.009-.665.027-1 .027-1.094 0-2.105-.111-3.041-.286zm15.486 23.312c-1.649-1.836-4.033-3-6.689-3-.688 0-1.356.085-2 .232v-18.148c2.684.187 9.804.493 16.775-.814l-3.622 21.73zm-17.689 2h2.95c-.314.629-.558 1.298-.718 2h-2.232zm11-3c3.859 0 7 3.14 7 7 0 3.859-3.141 7-7 7s-7-3.141-7-7c0-3.86 3.141-7 7-7zm11 3v2h-2.232c-.16-.702-.404-1.371-.718-2zm-2 4h2v2h-2.232c.147-.644.232-1.312.232-2zm-10-33c8.201 0 12.666 2.052 14.738 3.423-2.457.421-4.934.643-7.2.746-.278-.708-.942-1.377-2.023-2.026-5.335-3.2-14.446-.221-14.831-.092l-.878.293.951 3.804c-2.145-.723-3.65-1.731-4.432-2.337 1.01-1.177 4.315-3.811 13.675-3.811zm-8 33c0 .688.085 1.356.232 2h-2.232v-2zm-5.94 20.844 3.743-16.844h3.147c.876 1.755 2.304 3.182 4.06 4.055h-.008l.939 16.895c-8.724-.399-11.321-3.289-11.881-4.106zm13.94 4.156c-.019 0-.036-.001-.055-.001l-.901-16.219c.631.14 1.284.22 1.956.22 3.525 0 6.574-2.042 8.05-5h3.147l3.709 16.687c-1.148 1.045-5.566 4.313-15.906 4.313z"/></g></symbol><symbol id="assets" viewBox="0 0 64 64"><title>assets</title><path d="m15 32h12c2.761 0 5-2.239 5-5v-3.067c0-4.933-3.955-11.933-5.133-11.933h-11.734c-1.178 0-5.133 7-5.133 11.933v3.067c0 2.761 2.239 5 5 5z" fill="#febe07"/><path d="m28.77 4.281-2.09 1.045c-.317.159-.702.068-.915-.216l-1.325-1.767c-.268-.357-.79-.394-1.105-.079l-1.738 1.738c-.316.316-.837.279-1.105-.079l-1.185-1.58c-.268-.357-.79-.394-1.105-.079l-2.03 2.03c-.188.188-.464.26-.72.187l-3.035-.867c-.625-.178-1.157.486-.845 1.057l3.428 6.329h12l2.775-6.781c.262-.627-.397-1.241-1.005-.938z" fill="#febe07"/><path d="m27 32c2.761 0 5-2.239 5-5v-3.067c0-4.933-3.955-11.933-5.133-11.933h-11.734c-.668 0 6.36.431 9.867 6 2.677 4.251 2 14 2 14z" fill="#b18300"/><path d="m28.77 4.281-1.414.707c-2.747 2.756-6.199 4.722-9.994 5.671l-2.72.68.358.661h12l2.775-6.781c.262-.627-.397-1.241-1.005-.938z" fill="#b18300"/><path d="m35 4h10v28h-10z" fill="#5aa2ff"/><path d="m45 16-4 4-4 4h2v8h6z" fill="#2b67b3"/><path d="m29.3 16h-3.3v16h9v-16z" fill="#5aa2ff"/><path d="m47 27h4v5h-4z" fill="#5aa2ff"/><path d="m57.707 30c-1.046 0-2.003.591-2.471 1.527l-.236.473-3 6-7 3c0-2.209-1.791-4-4-4h-14.398c-5.595 0-11.05 1.748-15.602 5v15h23.606c4.832 0 9.566-1.358 13.663-3.919 6.195-3.871 10.456-10.188 11.725-17.381l.434-2.458c.298-1.691-1.003-3.242-2.721-3.242z" fill="#ffe5cf"/><path d="m55 24h-12v8h4v-5h4v5h4z" fill="#cbe6fe"/><path d="m10 37h-6c-.552 0-1 .448-1 1v22c0 .552.448 1 1 1h6c.552 0 1-.448 1-1v-22c0-.552-.448-1-1-1z" fill="#2b67b3"/><path d="m57 24-8-8-4 4-4 4z" fill="#b18300"/><path d="m32 16h3v16h-3z" fill="#2b67b3"/><path d="m4 62h6c1.103 0 2-.897 2-2v-2h22.606c5.024 0 9.933-1.408 14.193-4.07 6.423-4.015 10.862-10.596 12.179-18.056l.434-2.458c.194-1.098-.105-2.218-.822-3.072s-1.768-1.344-2.883-1.344c-.609 0-1.189.151-1.707.415v-4.415h1c.404 0 .77-.244.924-.617.155-.374.069-.804-.217-1.09l-8-8c-.391-.391-1.023-.391-1.414 0l-2.293 2.293v-13.586c0-.552-.447-1-1-1h-10c-.553 0-1 .448-1 1v11h-4.052c-.761-1.674-1.324-2.653-1.776-3.221l2.527-6.176c.281-.675.117-1.434-.418-1.933-.535-.5-1.304-.609-1.957-.283l-1.891.945-1.191-1.588c-.301-.402-.761-.654-1.262-.69-.502-.037-.993.146-1.352.503l-1.521 1.52-.999-1.333c-.302-.403-.762-.654-1.264-.69-.501-.037-.994.147-1.35.503l-1.919 1.919-2.884-.824c-.677-.194-1.392.036-1.829.583-.438.547-.505 1.298-.17 1.911l3.024 5.583c-2.123 1.918-4.716 7.307-4.716 12.204v3.067c0 3.309 2.691 6 6 6h11 9 8 10.382l-2.112 4.225-5.499 2.357c-.617-2.063-2.51-3.582-4.771-3.582h-14.397c-5.204 0-10.211 1.434-14.603 4.146v-2.146c0-1.103-.897-2-2-2h-6c-1.103 0-2 .897-2 2v22c0 1.103.897 2 2 2zm11.177-55.557c.605.173 1.258.005 1.702-.441l1.813-1.813 1 1.335c.303.402.764.654 1.266.689.508.033.992-.149 1.347-.504l1.521-1.52 1.141 1.52c.501.672 1.409.888 2.162.512l1.455-.728-2.256 5.507h-2.71l1.276-2.553-1.789-.895-1.723 3.448h-1.753l-1.394-2.9-1.803.867.977 2.033h-1.814l-2.843-5.25zm9.823 9.557v15h-10c-2.206 0-4-1.794-4-4v-3.067c0-5.353 3.313-10.345 4.261-10.933h11.327c.162.196.529.722 1.15 2h-1.738c-.553 0-1 .448-1 1zm2 1h7v14h-7zm22 .414 5.586 5.586h-11.172zm-13-12.414h8v14.586l-3.707 3.707c-.286.286-.372.716-.217 1.09.154.373.52.617.924.617h1v6h-6zm8 20h10v6h-2v-4c0-.552-.447-1-1-1h-4c-.553 0-1 .448-1 1v4h-2zm6 6h-2v-3h2zm-23.397 7h14.397c1.654 0 3 1.346 3 3s-1.346 3-3 3h-16v2h16c2.521 0 4.591-1.882 4.93-4.311l6.463-2.77c.218-.093.396-.26.501-.472l3.236-6.473c.302-.601.905-.974 1.577-.974.522 0 1.015.229 1.351.63s.477.925.386 1.439l-.434 2.458c-1.219 6.903-5.326 12.992-11.271 16.707-3.942 2.464-8.483 3.766-13.133 3.766h-22.606v-13.462c4.319-2.962 9.353-4.538 14.603-4.538zm-22.603 0h6l.001 22h-6.001z"/><path d="m6 41h2v3h-2z"/><path d="m38 7h1v2h-1z"/><path d="m41 7h1v2h-1z"/><path d="m38 11h1v2h-1z"/><path d="m41 11h1v2h-1z"/><path d="m38 15h1v2h-1z"/><path d="m41 15h1v2h-1z"/><path d="m29 19h1v2h-1z"/><path d="m32 19h1v2h-1z"/><path d="m29 23h1v2h-1z"/><path d="m32 23h1v2h-1z"/><path d="m29 27h1v2h-1z"/><path d="m32 27h1v2h-1z"/><path d="m38 19h1v2h-1z"/><path d="m41 19h1v2h-1z"/><path d="m22 18h-1v-1h-2v1h-1c-.553 0-1 .448-1 1v3c0 .552.447 1 1 1h3v1h-4v1c0 .552.447 1 1 1h1v1h2v-1h1c.553 0 1-.448 1-1v-3c0-.552-.447-1-1-1h-3v-1h4v-1c0-.552-.447-1-1-1z"/><path d="m53 4h2v2h-2z"/><path d="m55 2h2v2h-2z"/><path d="m57 4h2v2h-2z"/><path d="m55 6h2v2h-2z"/><path d="m60 9h2v2h-2z"/><path d="m53 12h2v2h-2z"/><path d="m2 11h2v2h-2z"/><path d="m4 9h2v2h-2z"/><path d="m6 11h2v2h-2z"/><path d="m4 13h2v2h-2z"/><path d="m2 19h2v2h-2z"/><path d="m6 2h2v2h-2z"/></symbol><symbol id="cheque" viewBox="0 0 510.272 510.272"><title>cheque</title><g><path d="m443.445 430.635h-420.868c-8.531 0-15.447-6.916-15.447-15.447v-222.902c0-8.531 6.916-15.447 15.447-15.447h420.868c8.531 0 15.447 6.916 15.447 15.447v222.902c-.001 8.531-6.916 15.447-15.447 15.447z" fill="#f9f3f1"/><path d="m479.65 100.635-29.49 111.19-17.36 65.46-5.77 21.77c-2.14 8.04-10.82 12.7-19.39 10.41l-6.47-1.72c-8.58-2.29-13.8-10.66-11.67-18.69l5.7-21.51 17.37-65.46 29.56-111.46c2.13-8.04 10.81-12.7 19.38-10.41l6.47 1.73c8.58 2.28 13.81 10.65 11.67 18.69z" fill="#8ac9fe"/><path d="m311.668 249.071h-258.727c-6.298 0-11.404-5.106-11.404-11.404v-21.933c0-6.298 5.106-11.404 11.404-11.404h258.727c6.298 0 11.404 5.106 11.404 11.404v21.933c0 6.298-5.106 11.404-11.404 11.404z" fill="#fe646f"/><path d="m450.16 211.825-17.36 65.46-37.6-9.74 17.37-65.46z" fill="#fe646f"/><path d="m52.58 430.635h-30c-8.53 0-15.45-6.92-15.45-15.45v-222.9c0-8.53 6.92-15.45 15.45-15.45h30c-8.53 0-15.45 6.92-15.45 15.45v222.9c0 8.53 6.92 15.45 15.45 15.45z" fill="#e1d3ce"/></g><g><path d="m41.942 324.242h202.43c4.143 0 7.5-3.358 7.5-7.5s-3.357-7.5-7.5-7.5h-202.43c-4.143 0-7.5 3.358-7.5 7.5s3.358 7.5 7.5 7.5z"/><path d="m224.234 393.193c1.861 6.389 3.785 12.997 10.386 12.997 3.567 0 5.996 0 34.363-33.116 8.374 9.433 23.45 23.764 37.763 23.762.78 0 1.562-.043 2.337-.131 8.547-.977 15.441-6.706 21.525-11.76 11.14-9.256 13.138-9.153 17.544-4.62 16.464 16.934 36.541 11.185 44.854 5.779 3.474-2.258 4.484-6.919 2.227-10.392-2.257-3.474-6.879-4.474-10.351-2.217-1.429.895-14.288 8.396-25.976-3.626-8.27-8.507-16.479-8.295-21.911-6.618-5.966 1.842-11.054 6.069-15.974 10.157-4.689 3.896-9.539 7.925-13.643 8.394-8.344.96-24.237-14.316-32.348-24.934-1.377-1.807-3.499-2.893-5.77-2.952-2.266-.055-4.447.914-5.916 2.646-8.816 10.395-19.006 21.991-25.648 29.097-2.462-9.24-5.81-24.022-8.47-37.069-.67-3.285-3.438-5.727-6.781-5.98-3.363-.26-6.448 1.744-7.606 4.889l-18.402 50.018c-1.43 3.888.563 8.198 4.449 9.628.854.314 1.729.463 2.589.463 3.054 0 5.924-1.879 7.04-4.912l9.53-25.905c1.609 6.86 3.017 12.376 4.189 16.402z"/><path d="m41.942 290.504h202.43c4.143 0 7.5-3.358 7.5-7.5s-3.357-7.5-7.5-7.5h-202.43c-4.143 0-7.5 3.358-7.5 7.5s3.358 7.5 7.5 7.5z"/><path d="m53.347 257.081h259.052c10.424 0 18.904-8.48 18.904-18.904v-21.861c0-10.424-8.48-18.904-18.904-18.904h-259.052c-10.424 0-18.904 8.48-18.904 18.904v21.861c-.001 10.423 8.48 18.904 18.904 18.904zm-3.905-40.766c0-2.153 1.752-3.904 3.904-3.904h259.052c2.153 0 3.904 1.751 3.904 3.904v21.861c0 2.153-1.751 3.904-3.904 3.904h-259.051c-2.152 0-3.904-1.751-3.904-3.904v-21.861z"/><path d="m459.78 389.135c-4.143 0-7.5 3.358-7.5 7.5v17.77c0 4.384-3.566 7.95-7.95 7.95h-222.7c-4.143 0-7.5 3.358-7.5 7.5s3.357 7.5 7.5 7.5h222.7c12.655 0 22.95-10.295 22.95-22.95v-17.77c0-4.142-3.357-7.5-7.5-7.5z"/><path d="m505.005 128.44c-4.546-7.261-11.51-12.665-19.775-15.422l2.583-9.712c1.572-5.909.608-12.085-2.713-17.39-3.22-5.141-8.295-8.851-14.291-10.446l-6.478-1.723c-12.572-3.343-25.394 3.706-28.587 15.71l-21.146 79.507h-391.659c-12.648.001-22.939 10.296-22.939 22.951v222.49c0 12.655 10.291 22.95 22.939 22.95h164.69c4.143 0 7.5-3.358 7.5-7.5s-3.357-7.5-7.5-7.5h-164.69c-4.378 0-7.939-3.566-7.939-7.95v-222.49c0-4.383 3.562-7.95 7.939-7.95h387.67l-5.323 20.017c-.005.018-.012.035-.017.053s-.007.036-.012.055l-15.38 57.827c-.004.014-.01.027-.013.041s-.005.028-.009.042l-6.801 25.57c-2.755 10.362 2.554 21.076 12.138 25.967l-5.376 20.211c-1.064 4.003 1.317 8.111 5.32 9.176.646.172 1.294.254 1.933.254 3.316 0 6.351-2.217 7.243-5.574l5.284-19.865c1.101.15 2.203.228 3.301.228 3.913 0 7.762-.946 11.231-2.804 5.518-2.954 9.422-7.835 10.993-13.745l6.808-25.598c.001-.004.003-.008.005-.013.002-.007.003-.015.005-.022l10.34-38.878v125.729c0 4.142 3.357 7.5 7.5 7.5s7.5-3.358 7.5-7.5v-170.72c0-2.453-.384-4.842-1.136-7.135l15.218-57.218c4.574 1.731 8.403 4.803 10.925 8.831 2.84 4.548 3.684 9.76 2.376 14.677l-12.357 46.461c-1.064 4.003 1.317 8.111 5.32 9.176.646.172 1.294.254 1.933.254 3.316 0 6.351-2.217 7.243-5.574l12.357-46.461c2.385-8.971.912-18.374-4.153-26.487zm-84.378 169.122c-.492 1.85-1.762 3.403-3.576 4.375-1.982 1.062-4.349 1.31-6.658.695l-6.478-1.723c-4.576-1.217-7.431-5.472-6.364-9.485l4.884-18.363 23.076 6.138zm8.739-32.859-23.076-6.137 11.55-43.426 23.076 6.137zm15.405-57.923-23.076-6.137 28.545-107.329c.872-3.28 4.099-5.398 7.747-5.398.815 0 1.652.106 2.488.328l6.478 1.723c2.309.614 4.238 2.003 5.433 3.91 1.093 1.745 1.423 3.724.931 5.574z"/></g></symbol><symbol id="balance" viewBox="0 0 512 512"><title>balance</title><g><path d="m437.655 159.036h-379.428c-8.694 0-15.742-7.048-15.742-15.742 0-8.694 7.048-15.742 15.742-15.742h379.428c8.694 0 15.742 7.048 15.742 15.742 0 8.694-7.048 15.742-15.742 15.742z" fill="#c1e5ef"/><path d="m248.013 54.101h-.145c-12.553 0-22.729 10.176-22.729 22.729v385.176h45.604v-385.176c0-12.553-10.177-22.729-22.73-22.729z" fill="#faf1a9"/><path d="m455.968 270.828c5.558 0 9.871 5.168 9.135 10.988-5.083 40.171-35.809 71.154-77.059 71.154-41.251 0-71.976-30.984-77.059-71.154-.736-5.82 3.577-10.988 9.135-10.988z" fill="#f6e06e"/><path d="m455.968 270.828h-35.897c4.182 0 7.428 3.889 6.874 8.268-3.825 30.231-26.948 53.547-57.991 53.547-30.98 0-54.069-23.223-57.964-53.364-.102.822-.116 1.67-.007 2.536 5.083 40.171 35.809 71.154 77.059 71.154 41.251 0 71.976-30.983 77.059-71.154.738-5.819-3.575-10.987-9.133-10.987z" fill="#dda86a"/><path d="m175.709 270.828c5.558 0 9.871 5.168 9.135 10.988-5.083 40.171-35.808 71.154-77.059 71.154s-71.976-30.984-77.06-71.154c-.736-5.82 3.577-10.988 9.135-10.988z" fill="#f6e06e"/><path d="m175.709 270.828h-34.217c4.247 0 7.543 3.949 6.98 8.396-3.884 30.695-27.362 54.371-58.883 54.371-31.48 0-54.936-23.615-58.866-54.253-.094.802-.105 1.629.002 2.474 5.083 40.171 35.809 71.154 77.06 71.154s71.976-30.983 77.059-71.154c.736-5.82-3.578-10.988-9.135-10.988z" fill="#dda86a"/><path d="m351.657 501.968h-207.433v-13.519c0-26.748 21.684-48.432 48.432-48.432h110.569c26.748 0 48.432 21.684 48.432 48.432z" fill="#f6e06e"/><path d="m303.071 440.017h-27.15c8.43 5.707 14.973 13.992 18.496 23.723 2.914 8.048-3.136 16.539-11.695 16.539h-137.773c-.468 2.706-.725 5.484-.725 8.324v13.365h207.433v-13.365c0-26.833-21.753-48.586-48.586-48.586z" fill="#dda86a"/><ellipse cx="247.941" cy="143.894" fill="#f6e06e" rx="32.301" ry="32.301" transform="matrix(.375 -.927 .927 .375 21.522 319.719)"/><path d="m73.607 2.47 8.291 23.312c.355.998 1.058 1.789 1.944 2.188l20.712 9.332c2.926 1.318 2.926 5.98 0 7.299l-20.712 9.332c-.887.4-1.59 1.19-1.944 2.189l-8.291 23.312c-1.171 3.293-5.313 3.293-6.485 0l-8.291-23.312c-.355-.998-1.057-1.789-1.944-2.189l-20.712-9.332c-2.926-1.318-2.926-5.98 0-7.299l20.712-9.332c.887-.399 1.59-1.19 1.944-2.188l8.291-23.312c1.171-3.293 5.314-3.293 6.485 0z" fill="#fbf2aa"/><path d="m393.679 26.932 6.15 17.293c.263.74.785 1.327 1.442 1.623l15.364 6.922c2.171.978 2.171 4.436 0 5.414l-15.364 6.922c-.658.296-1.179.883-1.442 1.623l-6.15 17.293c-.869 2.443-3.941 2.443-4.81 0l-6.15-17.293c-.263-.74-.785-1.327-1.442-1.623l-15.364-6.922c-2.17-.978-2.17-4.436 0-5.414l15.364-6.922c.658-.296 1.179-.883 1.442-1.623l6.15-17.293c.868-2.443 3.941-2.443 4.81 0z" fill="#fbf2aa"/><ellipse cx="473.395" cy="401.04" fill="#f7e16e" rx="17.994" ry="17.994" transform="matrix(.707 -.707 .707 .707 -144.924 452.203)"/><ellipse cx="166.673" cy="68.888" fill="#f7e16e" rx="7.762" ry="7.762" transform="matrix(.707 -.707 .707 .707 .106 138.032)"/><path d="m247.941 111.593c-17.839 0-32.301 14.461-32.301 32.301 0 17.839 14.462 32.301 32.301 32.301s32.301-14.462 32.301-32.301c0-17.84-14.462-32.301-32.301-32.301zm-2.785 45.558c-10.313 0-18.673-8.361-18.673-18.674s8.36-18.673 18.673-18.673 18.673 8.36 18.673 18.673-8.36 18.674-18.673 18.674z" fill="#dda86a"/></g><g fill="#3c122c"><path d="m470.243 267.299c-3.163-3.589-7.503-5.842-12.146-6.375l-53.033-91.856h32.591c14.212 0 25.773-11.562 25.773-25.773 0-14.212-11.562-25.774-25.773-25.774h-156.637c-.082-.103-.16-.208-.243-.31v-40.308c0-18.104-14.729-32.834-32.833-32.834h-.001c-18.104 0-32.834 14.729-32.834 32.834v40.308c-.083.102-.161.207-.243.31h-156.638c-14.212 0-25.773 11.562-25.773 25.774 0 14.211 11.562 25.773 25.773 25.773h32.537l-53.033 91.856c-4.643.533-8.983 2.786-12.146 6.375-3.784 4.292-5.538 10.043-4.812 15.777 2.792 22.064 12.743 42.188 28.019 56.664 15.831 15.002 36.781 23.263 58.993 23.263 22.211 0 43.162-8.262 58.993-23.263 15.277-14.476 25.227-34.599 28.019-56.664.725-5.734-1.029-11.485-4.812-15.777-3.163-3.589-7.504-5.842-12.147-6.375l-53.034-91.856h89.126c.38.512.774 1.015 1.176 1.51v259.408h-22.296c-32.322 0-58.618 26.296-58.618 58.618v13.365c0 5.54 4.491 10.032 10.032 10.032h207.433c5.541 0 10.032-4.492 10.032-10.032v-13.365c0-32.322-26.296-58.618-58.618-58.618h-22.296v-259.409c.403-.495.796-.997 1.177-1.51h89.072l-53.034 91.856c-4.643.533-8.983 2.786-12.147 6.375-3.783 4.292-5.537 10.043-4.812 15.777 2.792 22.064 12.743 42.188 28.019 56.664 15.831 15.002 36.782 23.263 58.993 23.263s43.162-8.262 58.993-23.263c15.277-14.476 25.227-34.599 28.019-56.664.727-5.734-1.027-11.484-4.811-15.776zm-362.459-87.584 46.813 81.082h-93.626zm0 163.223c-34.751 0-62.28-25.486-67.063-62.078h134.131c-4.76 36.568-32.3 62.078-67.068 62.078zm117.888-199.044c0-12.279 9.99-22.269 22.268-22.269 12.279 0 22.269 9.99 22.269 22.269s-9.99 22.269-22.269 22.269c-12.278 0-22.268-9.99-22.268-22.269zm22.269-79.761c7.041 0 12.77 5.729 12.77 12.77v26.632c-4.032-1.279-8.321-1.973-12.77-1.973s-8.738.695-12.77 1.973v-26.632c-.001-7.041 5.728-12.77 12.77-12.77zm-189.715 84.871c-3.148 0-5.71-2.561-5.71-5.71s2.561-5.71 5.71-5.71h147.854c-.309 2.059-.472 4.166-.472 6.31 0 1.73.117 3.434.319 5.11zm283.399 339.599v3.333h-187.369v-3.333c0-21.259 17.296-38.554 38.555-38.554h110.26c21.259 0 38.554 17.295 38.554 38.554zm-106.455-58.617v-245.732c4.032 1.278 8.321 1.973 12.77 1.973s8.739-.695 12.77-1.973v245.732zm54.631-292.402h147.854c3.148 0 5.71 2.562 5.71 5.71 0 3.149-2.561 5.71-5.71 5.71h-147.701c.203-1.676.319-3.38.319-5.11 0-2.145-.163-4.251-.472-6.31zm145.055 123.213h-93.626l46.813-81.082zm-46.813 82.141c-34.751 0-62.281-25.486-67.063-62.078h134.131c-4.76 36.568-32.299 62.078-67.068 62.078z"/><path d="m419.847 317.464c-3.324 0-6.019-2.695-6.019-6.019v-12.138c0-3.324 2.695-6.019 6.019-6.019s6.019 2.695 6.019 6.019v12.138c0 3.324-2.695 6.019-6.019 6.019z"/><path d="m393.025 335.002c-3.324 0-6.019-2.695-6.019-6.019v-12.138c0-3.324 2.695-6.019 6.019-6.019s6.019 2.695 6.019 6.019v12.138c0 3.324-2.695 6.019-6.019 6.019z"/><path d="m137.055 322.037c-3.324 0-6.019-2.695-6.019-6.019v-12.138c0-3.324 2.695-6.019 6.019-6.019s6.019 2.695 6.019 6.019v12.138c0 3.324-2.695 6.019-6.019 6.019z"/></g></symbol></svg>